PathFileType	4	(X/Y/Z)	DARI_DATA/Captury_Subj4_bilateral_squat01.trc
DataRate	CameraRate	NumFrames	NumMarkers	Units	OrigDataRate	OrigDataStartFrame	OrigNumFrames
60	60	4	47	mm	60.00239944458008	57	226
Frame#	Time		LeftUpLeg_		RightUpLeg_		LeftLeg_		RightLeg_		LeftFoot_		RightFoot_		LeftToeBase_		RightToeBase_		Knee_Lateral_r		Knee_Lateral_l		Ankle_Lateral_r		Ankle_Lateral_l		LeftArm_		LeftForeArm_		LeftHand_		LeftHandEE		RightArm_		RightForeArm_		RightHand_		RightHandEE		Spine_		Spine1_		Spine2_		Spine3_		Spine4_		Spine5_		Spine_x		Spine_y		Spine_z		RASI		LASI		RIPS		LIPS		RTHI		LTHI		RTIB		LTIB		RTOE		LTOE		RHEE		LHEE		RHipAngles		LHipAngles		RKneeAngles		LKneeAngles		RAnkleAngles		LAnkleAngles
			X1	Y1	Z1	X2	Y2	Z2	X3	Y3	Z3	X4	Y4	Z4	X5	Y5	Z5	X6	Y6	Z6	X7	Y7	Z7	X8	Y8	Z8	X9	Y9	Z9	X10	Y10	Z10	X11	Y11	Z11	X12	Y12	Z12	X13	Y13	Z13	X14	Y14	Z14	X15	Y15	Z15	X16	Y16	Z16	X17	Y17	Z17	X18	Y18	Z18	X19	Y19	Z19	X20	Y20	Z20	X21	Y21	Z21	X22	Y22	Z22	X23	Y23	Z23	X24	Y24	Z24	X25	Y25	Z25	X26	Y26	Z26	X27	Y27	Z27	X28	Y28	Z28	X29	Y29	Z29	X30	Y30	Z30	X31	Y31	Z31	X32	Y32	Z32	X33	Y33	Z33	X34	Y34	Z34	X35	Y35	Z35	X36	Y36	Z36	X37	Y37	Z37	X38	Y38	Z38	X39	Y39	Z39	X40	Y40	Z40	X41	Y41	Z41	X42	Y42	Z42	X43	Y43	Z43	X44	Y44	Z44	X45	Y45	Z45	X46	Y46	Z46	X47	Y47	Z47

57	0.93333	-108.37424	859.73639	45.65661	59.12465	862.38696	49.45711	-145.20657	454.86108	30.70762	91.18762	457.17523	32.73817	-181.13571	81.90814	55.26597	121.93111	83.63007	55.24986	-191.28110	26.63468	-63.07756	138.20943	29.94288	-63.13927	137.83200	458.40326	34.52370	-191.86362	456.70129	31.06481	167.82391	86.36880	75.63629	-227.58835	85.49914	74.20041	-161.51219	1361.23169	66.12817	-238.12450	1323.60132	-209.56073	-206.43460	1334.20605	-442.05908	-197.59683	1342.63501	-526.90692	103.51688	1357.10889	77.57911	166.20813	1311.47974	-200.40948	147.84836	1322.82654	-434.30341	155.17722	1329.88306	-519.41980	-26.56689	952.26196	69.54242	-27.63186	1053.19092	60.28735	-28.66630	1125.58557	78.33463	-30.22644	1209.56995	120.97588	-30.41495	1345.59229	131.95459	-28923081178180147754616411384381964288.00000	0.00000	-28923121742999355057957259278884536320.00000	20.41473	953.00543	70.60842	-27.35043	999.22125	71.32343	-27.60380	950.46387	116.49615	117.33668	930.63226	-41.01714	-164.55304	926.17139	-47.41314	10.86639	923.60229	97.49886	-64.30421	922.41272	95.79325	139.38660	676.50775	47.16424	-190.95132	674.89258	42.17853	143.08881	290.63324	29.85261	-201.38573	232.95544	26.41376	142.79607	22.56352	-136.48575	-191.65823	15.88466	-136.14938	132.65024	23.14258	107.02174	-197.66425	22.84023	107.14806	0.57265	0.62569	0.86911	0.91396	3.20259	1.65780	0.02045	0.22520	-0.02446	-0.05282	0.16908	-0.04009	5.72941	0.90703	10.21194	6.15545	-1.15997	11.84692
58	0.95000	-108.43137	860.08258	46.36464	59.07495	862.73969	49.81461	-145.60791	455.26480	30.72524	91.09851	457.56607	32.12465	-180.89410	82.19562	54.43589	122.04910	84.02628	54.44019	-190.91261	26.72003	-63.82387	138.21532	30.05579	-63.83543	137.75629	458.80405	33.50732	-192.26326	457.14343	31.10169	168.10568	86.81878	74.44637	-227.34924	85.73292	73.37426	-161.28456	1362.16492	65.03024	-237.30064	1324.68713	-210.84442	-205.81938	1335.79419	-443.34766	-197.46005	1345.12854	-528.14917	103.76067	1358.48499	75.81222	164.99043	1313.27905	-202.57098	146.30676	1324.61633	-436.43976	153.33798	1332.30798	-521.52625	-26.56962	952.72650	69.59656	-27.65338	1053.79187	59.98564	-28.66230	1126.40649	77.85715	-30.17718	1210.63721	120.37685	-30.33792	1346.84131	131.22980	-28923081178180147754616411384381964288.00000	0.00000	-28923121742999355057957259278884536320.00000	20.41409	953.47174	70.56424	-27.34623	999.69464	71.13084	-27.51232	951.17676	116.56113	117.10998	930.50079	-41.13593	-164.79227	926.02930	-46.94202	10.91769	924.21198	97.62888	-64.25624	923.01959	96.08058	139.36301	676.88708	46.50706	-191.16440	675.31427	42.59400	142.98497	291.02692	28.83945	-201.40526	233.27315	25.92841	142.68788	22.53605	-137.17470	-191.26045	15.93448	-136.89061	132.93295	23.68756	106.35111	-197.23813	23.15632	106.40893	0.16542	0.62598	0.49552	0.51272	3.25251	1.55553	-0.08721	0.21764	0.00134	-0.02227	0.02194	-0.05299	5.87652	1.28201	10.26454	6.36921	-1.16108	11.78179
59	0.96667	-108.25719	860.09094	47.19143	59.25498	862.87683	50.23253	-145.20488	455.28973	30.61008	91.33958	457.76834	31.21214	-181.04993	82.24283	53.82661	122.68803	84.27881	53.81152	-190.59256	26.38964	-64.29472	138.41730	29.92239	-64.34621	138.00885	459.03360	32.09005	-191.86215	457.14911	30.79740	168.94650	87.16191	73.33322	-227.57451	85.89690	72.57139	-161.23645	1362.71899	63.91800	-237.33685	1325.66870	-211.99112	-205.79947	1337.41272	-444.45547	-196.81198	1347.11707	-529.15112	103.82999	1359.81702	74.10530	163.99757	1315.34167	-204.62691	144.76489	1326.94165	-438.43823	151.00082	1334.11743	-523.63171	-26.40717	952.84918	70.00462	-27.58885	1054.09558	60.11493	-28.61118	1126.97839	77.77405	-30.09800	1211.57214	120.02182	-30.31545	1348.02551	130.38429	-28923081178180147754616411384381964288.00000	0.00000	-28923121742999355057957259278884536320.00000	20.57818	953.63062	70.85762	-27.21420	999.82025	71.42827	-27.23598	951.41132	116.97490	117.02224	930.46167	-41.01923	-164.88983	925.77313	-46.13721	11.16804	924.42896	98.01500	-64.00851	923.17865	96.65021	139.61945	677.08557	45.60065	-190.89912	675.29749	42.71907	143.26465	291.24670	27.66064	-201.25717	233.37221	25.37715	142.53455	22.25641	-137.69113	-190.62227	15.44550	-137.33871	133.96358	24.15279	105.88535	-197.62006	23.37390	105.92117	-0.11829	0.60097	0.01788	0.26997	3.26635	1.17918	-0.31992	0.21252	0.02670	-0.07992	0.11634	-0.05500	5.99364	1.60045	10.35377	6.60561	-1.17773	11.72456
60	0.98333	-108.06866	860.56525	48.70990	59.45103	863.37384	51.27894	-145.36642	455.87115	30.38840	91.45064	458.42554	28.98540	-181.23320	82.78394	52.91441	122.86487	85.03882	53.13905	-190.80241	26.61533	-65.05511	138.70720	30.06546	-64.71777	138.12326	459.68515	29.67294	-192.02202	457.76917	30.60382	169.19763	88.02570	72.46801	-227.73972	86.49072	71.69366	-161.00908	1363.09802	63.14776	-237.54457	1326.38843	-212.68658	-205.78221	1339.10767	-445.06900	-196.90099	1348.79614	-529.77771	104.05340	1360.86670	72.66132	162.93610	1317.25916	-206.48212	143.28043	1328.90649	-440.25592	148.97359	1337.27051	-525.37897	-26.16366	953.40741	70.97797	-27.38623	1054.67139	60.66300	-28.37714	1127.69849	77.98254	-29.77719	1212.57520	119.79435	-30.01313	1349.14502	129.39818	-28923081178180147754616411384381964288.00000	0.00000	-28923121742999355057957259278884536320.00000	20.82380	954.19519	71.69855	-26.97064	1000.38306	72.24232	-26.86269	952.13104	117.95502	116.96058	930.64874	-40.36382	-164.96417	925.92200	-44.68734	11.49108	925.08643	98.98206	-63.68886	923.82593	97.82912	139.79346	677.62598	44.86422	-190.86906	675.86292	43.47138	143.35236	291.88586	25.98122	-201.44604	233.96991	24.77102	142.81586	22.10101	-138.03137	-190.84688	15.54708	-138.08038	134.27699	25.22655	105.54343	-197.73720	24.04090	105.17183	-0.76011	0.58349	-0.05789	-0.17348	3.32280	1.03740	-1.02087	0.22022	0.03299	-0.21908	0.07478	-0.04069	6.05411	1.82224	10.46796	6.86445	-1.20490	11.68456
